<svg xmlns="http://www.w3.org/2000/svg" viewBox="0 0 32 32" width="32" height="32">
  <circle cx="16" cy="16" r="14" fill="#25D366"/>
  <path d="M16 8c-4.4 0-8 3.6-8 8 0 1.4.4 2.7 1 3.9L7 25l5.1-2c1.2.6 2.5 1 3.9 1 4.4 0 8-3.6 8-8s-3.6-8-8-8zm0 14c-1.1 0-2.1-.3-3-.8l-.3-.2-1.5.7.7-1.5-.2-.3c-.5-.9-.8-1.9-.8-3 0-3.3 2.7-6 6-6s6 2.7 6 6-2.7 6-6 6z" fill="white"/>
  <circle cx="13" cy="16" r="1.5" fill="white"/>
  <circle cx="16" cy="16" r="1.5" fill="white"/>
  <circle cx="19" cy="16" r="1.5" fill="white"/>
</svg>






